<?xml version="1.0" encoding="UTF-8"?>
<svg version="1.1" xmlns="http://www.w3.org/2000/svg" width="398" height="398">
<path d="M0 0 C131.34 0 262.68 0 398 0 C398 131.34 398 262.68 398 398 C266.66 398 135.32 398 0 398 C0 266.66 0 135.32 0 0 Z " fill="#FEFEFE" transform="translate(0,0)"/>
<path d="M0 0 C2.75 1.4375 2.75 1.4375 5 3 C8 4.33333333 8 4.33333333 11 3 C16.65600459 2.62911445 20.0866854 2.87334525 25 6 C25.61875 6.721875 26.2375 7.44375 26.875 8.1875 C29.62174907 10.53031538 31.42404428 10.0700716 34.90234375 9.89453125 C38.75189206 10.08808396 40.92442095 11.7240715 44 14 C44.69313908 15.65583225 45.36474424 17.32110979 46 19 C48.44063441 19.67147918 48.44063441 19.67147918 51 20 C52.8125 21.4375 52.8125 21.4375 54 23 C54 23.66 54 24.32 54 25 C54.598125 25.103125 55.19625 25.20625 55.8125 25.3125 C58.31258286 26.09824033 59.37535082 26.96918853 61 29 C61 29.66 61 30.32 61 31 C62.051875 31.061875 63.10375 31.12375 64.1875 31.1875 C68.72376302 32.15424458 70.14564526 33.41166833 73 37 C73.350625 37.886875 73.70125 38.77375 74.0625 39.6875 C74.75064521 42.14947914 74.75064521 42.14947914 76.890625 42.8515625 C80.9534638 45.06355251 82.36577062 49.84868169 84 54 C84.165 55.19625 84.33 56.3925 84.5 57.625 C85.01010258 61.06819238 85.6097103 62.08729766 87.5625 64.8125 C90.36364417 68.90586255 90.40463604 72.13553168 90.078125 76.99609375 C90.05234375 77.65738281 90.0265625 78.31867188 90 79 C90.33 79.33 90.66 79.66 91 80 C91.1875 82.9375 91.1875 82.9375 91 86 C90.34 86.66 89.68 87.32 89 88 C88.49980921 89.63395659 88.00691664 91.2708282 87.56640625 92.921875 C86.93470058 95.23958133 86.23415745 97.5251753 85.5 99.8125 C85.14421875 100.93591797 85.14421875 100.93591797 84.78125 102.08203125 C84 104 84 104 82 106 C81.62875 107.8253125 81.62875 107.8253125 81.25 109.6875 C80.29393388 113.89115578 78.44187883 116.16170242 75.53125 119.2578125 C73.18514361 121.92710702 71.66158089 124.86855909 70 128 C71.093125 128.556875 72.18625 129.11375 73.3125 129.6875 C76.72887828 131.67923471 78.56115263 133.19128638 80 137 C81.41544315 148.1466148 76.29386641 159.27302351 70.1640625 168.38671875 C65.42130295 174.11398615 58.97797976 180.27582001 52 183 C49.66796188 183.0777346 47.33160941 183.08967728 45 183 C44.60361328 184.31677734 44.60361328 184.31677734 44.19921875 185.66015625 C39.05412662 199.98932163 27.88432595 208.8706488 15 216 C11.7204827 217.53126026 8.43692001 218.86755861 5 220 C5.95777344 220.09796875 6.91554688 220.1959375 7.90234375 220.296875 C15.9442849 221.1786175 23.69949518 222.49436122 31.54589844 224.46777344 C37.41186276 225.92550734 43.3027583 226.97425565 49.29272461 227.78491211 C57.13194785 228.99528894 61.36225317 232.99820998 66 239 C65 241 65 241 62.79785156 241.82202148 C61.8384668 242.08571533 60.87908203 242.34940918 59.890625 242.62109375 C58.83302979 242.91532227 57.77543457 243.20955078 56.68579102 243.51269531 C55.55197998 243.81788086 54.41816895 244.12306641 53.25 244.4375 C52.09491943 244.75170898 50.93983887 245.06591797 49.74975586 245.38964844 C47.53893158 245.98736264 45.32710556 246.5813916 43.11401367 247.1706543 C40.93022097 247.7522571 38.74884447 248.34297261 36.56933594 248.94042969 C18.32340429 253.85302382 -1.21450048 254.53843788 -20 254 C-19.26265625 253.27039063 -18.5253125 252.54078125 -17.765625 251.7890625 C-15.36258259 249.36565533 -13.03310555 246.91081571 -10.75 244.375 C-10.06421875 243.61960937 -9.3784375 242.86421875 -8.671875 242.0859375 C-6.81127426 240.01142571 -6.81127426 240.01142571 -6 237 C-6.4846875 237.43570313 -6.969375 237.87140625 -7.46875 238.3203125 C-20.61471861 250 -20.61471861 250 -24 250 C-22.47453786 245.85148711 -19.84044322 244.29542316 -16.25 241.875 C-10.46717857 237.810952 -7.02952506 233.3646601 -4 227 C-4.33 226.67 -4.66 226.34 -5 226 C-5.7425 227.010625 -6.485 228.02125 -7.25 229.0625 C-11.5066972 234.06437441 -17.11563187 237.20641109 -23 240 C-23.99 240 -24.98 240 -26 240 C-26 239.34 -26 238.68 -26 238 C-23.89980986 236.52690889 -21.82232271 235.18690365 -19.625 233.875 C-19.02171875 233.50246094 -18.4184375 233.12992188 -17.796875 232.74609375 C-13.27034684 230 -13.27034684 230 -11 230 C-10.73445313 229.4225 -10.46890625 228.845 -10.1953125 228.25 C-8.57085649 225.19220045 -6.42595927 222.6748592 -4.2421875 220 C-2.64825957 217.82606978 -2.64825957 217.82606978 -3 214 C-3.66 213.67 -4.32 213.34 -5 213 C-5.27328125 213.59425781 -5.5465625 214.18851563 -5.828125 214.80078125 C-10.39417394 223.3697331 -20.00421864 228.10937645 -28 233 C-28.66 232.34 -29.32 231.68 -30 231 C-29.51644043 230.67314209 -29.03288086 230.34628418 -28.53466797 230.00952148 C-26.30768047 228.49567043 -24.09142927 226.96676329 -21.875 225.4375 C-21.11445313 224.92380859 -20.35390625 224.41011719 -19.5703125 223.88085938 C-14.75954008 220.54234921 -10.15010791 217.03110207 -7 212 C-7 211.01 -7 210.02 -7 209 C-10.17825992 209.58424529 -11.83362825 210.48498043 -14.1640625 212.69921875 C-18.2434841 216.3363589 -22.66293328 219.06881259 -27.375 221.8125 C-28.17421875 222.30169922 -28.9734375 222.79089844 -29.796875 223.29492188 C-34.95412204 226.31166104 -39.89742341 228.50428756 -46 228 C-46.99 227.34 -47.98 226.68 -49 226 C-48.835 224.700625 -48.67 223.40125 -48.5 222.0625 C-47.9684362 217.34580713 -47.92470459 212.74361065 -48 208 C-49.32 207.34 -50.64 206.68 -52 206 C-52.020625 207.155 -52.04125 208.31 -52.0625 209.5 C-52.54866582 214.30182245 -54.39762935 218.1049873 -56.5 222.375 C-60.85327162 231.39108985 -61.07513605 240.12497622 -61 250 C-69.61989662 248.51110877 -77.99102752 246.55821605 -86.375 244.0625 C-87.19387695 243.82192871 -88.01275391 243.58135742 -88.85644531 243.33349609 C-94.4455574 241.63192197 -99.71539567 239.48719847 -105 237 C-99.89129762 230.23848214 -95.16170126 227.95611226 -86.6875 226.5625 C-79.85662563 225.39013283 -73.14012827 223.91827615 -66.40893555 222.26977539 C-61.18668215 221 -61.18668215 221 -59 221 C-57.8768749 217.01382581 -57.8768749 217.01382581 -58 213 C-59.6878343 210.91205239 -61.56586729 209.4631045 -63.6875 207.8203125 C-75.44958095 198.56164743 -85.43104534 182.73406752 -88 168 C-88.07649781 166.38038502 -88.10811681 164.75810555 -88.09765625 163.13671875 C-88.09443359 162.25048828 -88.09121094 161.36425781 -88.08789062 160.45117188 C-88.07951172 159.53916016 -88.07113281 158.62714844 -88.0625 157.6875 C-88.05798828 156.75615234 -88.05347656 155.82480469 -88.04882812 154.86523438 C-88.03709234 152.57675627 -88.02067363 150.28841192 -88 148 C-88.94617188 147.731875 -89.89234375 147.46375 -90.8671875 147.1875 C-94.43246983 145.83607129 -95.37887247 144.49225506 -97.05859375 141.1328125 C-102.87641586 127.95218647 -106.09323235 113.18201399 -101.05859375 99.08984375 C-98.98683171 94.99983382 -96.16122966 91.08061483 -92 89 C-90.00039988 88.960008 -87.99952758 88.95653201 -86 89 C-86.495 88.01 -86.495 88.01 -87 87 C-87.20330981 85.5881263 -87.36476081 84.17001147 -87.5 82.75 C-87.76344703 80.1238931 -88.07551084 77.5972755 -88.5625 75 C-90.01612903 65.03225806 -90.01612903 65.03225806 -88 61 C-87.34 61 -86.68 61 -86 61 C-86.2475 60.113125 -86.495 59.22625 -86.75 58.3125 C-87.07483664 54.00841457 -85.62899197 53.26632336 -83 50 C-82.83322718 46.41656024 -82.83322718 46.41656024 -83 43 C-82.34 42.01 -81.68 41.02 -81 40 C-80.25450395 37.70206987 -79.61183799 35.38921287 -78.9765625 33.05859375 C-77.74387506 30.46008863 -76.59540113 30.09516926 -74 29 C-73.319375 28.29875 -72.63875 27.5975 -71.9375 26.875 C-70 25 -70 25 -67 25 C-66.9071875 23.88625 -66.9071875 23.88625 -66.8125 22.75 C-65.72058689 19.05429407 -64.27584369 17.96550622 -61 16 C-57.6875 15.75 -57.6875 15.75 -55 16 C-54.731875 15.236875 -54.46375 14.47375 -54.1875 13.6875 C-52.35665914 9.54401806 -52.35665914 9.54401806 -50 8 C-47.66666667 8 -45.33333333 8 -43 8 C-42.525625 7.505 -42.05125 7.01 -41.5625 6.5 C-40 5 -40 5 -36.1875 5.0625 C-35.12402344 5.11083984 -35.12402344 5.11083984 -34.0390625 5.16015625 C-31.6913121 5.14547232 -31.6913121 5.14547232 -29.0625 3 C-24.9810442 0.33455948 -21.75495632 0.35600777 -17 1 C-15.63875 1.5878125 -15.63875 1.5878125 -14.25 2.1875 C-13.5075 2.455625 -12.765 2.72375 -12 3 C-7.54359151 0.41997403 -5.29212195 -0.56701307 0 0 Z " fill="#F6BB97" transform="translate(218,140)"/>
<path d="M0 0 C2.75 1.4375 2.75 1.4375 5 3 C8 4.33333333 8 4.33333333 11 3 C16.65600459 2.62911445 20.0866854 2.87334525 25 6 C25.61875 6.721875 26.2375 7.44375 26.875 8.1875 C29.62174907 10.53031538 31.42404428 10.0700716 34.90234375 9.89453125 C38.75189206 10.08808396 40.92442095 11.7240715 44 14 C44.69313908 15.65583225 45.36474424 17.32110979 46 19 C48.44063441 19.67147918 48.44063441 19.67147918 51 20 C52.8125 21.4375 52.8125 21.4375 54 23 C54 23.66 54 24.32 54 25 C54.598125 25.103125 55.19625 25.20625 55.8125 25.3125 C58.31258286 26.09824033 59.37535082 26.96918853 61 29 C61 29.66 61 30.32 61 31 C62.051875 31.061875 63.10375 31.12375 64.1875 31.1875 C68.72376302 32.15424458 70.14564526 33.41166833 73 37 C73.350625 37.886875 73.70125 38.77375 74.0625 39.6875 C74.75064521 42.14947914 74.75064521 42.14947914 76.890625 42.8515625 C80.9534638 45.06355251 82.36577062 49.84868169 84 54 C84.165 55.19625 84.33 56.3925 84.5 57.625 C85.01010258 61.06819238 85.6097103 62.08729766 87.5625 64.8125 C90.36364417 68.90586255 90.40463604 72.13553168 90.078125 76.99609375 C90.05234375 77.65738281 90.0265625 78.31867188 90 79 C90.33 79.33 90.66 79.66 91 80 C91.1875 82.9375 91.1875 82.9375 91 86 C90.34 86.66 89.68 87.32 89 88 C88.49980921 89.63395659 88.00691664 91.2708282 87.56640625 92.921875 C86.93470058 95.23958133 86.23415745 97.5251753 85.5 99.8125 C85.14421875 100.93591797 85.14421875 100.93591797 84.78125 102.08203125 C84 104 84 104 82 106 C81.62875 107.8253125 81.62875 107.8253125 81.25 109.6875 C80.29393388 113.89115578 78.44187883 116.16170242 75.53125 119.2578125 C73.18514361 121.92710702 71.66158089 124.86855909 70 128 C71.093125 128.556875 72.18625 129.11375 73.3125 129.6875 C76.72887828 131.67923471 78.56115263 133.19128638 80 137 C81.41544315 148.1466148 76.29386641 159.27302351 70.1640625 168.38671875 C65.42130295 174.11398615 58.97797976 180.27582001 52 183 C49.66796188 183.0777346 47.33160941 183.08967728 45 183 C44.60361328 184.31677734 44.60361328 184.31677734 44.19921875 185.66015625 C39.05412662 199.98932163 27.88432595 208.8706488 15 216 C11.7204827 217.53126026 8.43692001 218.86755861 5 220 C5.95777344 220.09796875 6.91554688 220.1959375 7.90234375 220.296875 C15.9442849 221.1786175 23.69949518 222.49436122 31.54589844 224.46777344 C37.41186276 225.92550734 43.3027583 226.97425565 49.29272461 227.78491211 C57.13194785 228.99528894 61.36225317 232.99820998 66 239 C65 241 65 241 62.79785156 241.82202148 C61.8384668 242.08571533 60.87908203 242.34940918 59.890625 242.62109375 C58.83302979 242.91532227 57.77543457 243.20955078 56.68579102 243.51269531 C55.55197998 243.81788086 54.41816895 244.12306641 53.25 244.4375 C52.09491943 244.75170898 50.93983887 245.06591797 49.74975586 245.38964844 C47.53893158 245.98736264 45.32710556 246.5813916 43.11401367 247.1706543 C40.93022097 247.7522571 38.74884447 248.34297261 36.56933594 248.94042969 C18.32340429 253.85302382 -1.21450048 254.53843788 -20 254 C-19.26265625 253.27039063 -18.5253125 252.54078125 -17.765625 251.7890625 C-15.36258259 249.36565533 -13.03310555 246.91081571 -10.75 244.375 C-10.06421875 243.61960937 -9.3784375 242.86421875 -8.671875 242.0859375 C-6.81127426 240.01142571 -6.81127426 240.01142571 -6 237 C-6.4846875 237.43570313 -6.969375 237.87140625 -7.46875 238.3203125 C-20.61471861 250 -20.61471861 250 -24 250 C-22.47453786 245.85148711 -19.84044322 244.29542316 -16.25 241.875 C-10.46717857 237.810952 -7.02952506 233.3646601 -4 227 C-4.33 226.67 -4.66 226.34 -5 226 C-5.7425 227.010625 -6.485 228.02125 -7.25 229.0625 C-11.5066972 234.06437441 -17.11563187 237.20641109 -23 240 C-23.99 240 -24.98 240 -26 240 C-26 239.34 -26 238.68 -26 238 C-23.89980986 236.52690889 -21.82232271 235.18690365 -19.625 233.875 C-19.02171875 233.50246094 -18.4184375 233.12992188 -17.796875 232.74609375 C-13.27034684 230 -13.27034684 230 -11 230 C-10.73445313 229.4225 -10.46890625 228.845 -10.1953125 228.25 C-8.57085649 225.19220045 -6.42595927 222.6748592 -4.2421875 220 C-2.64825957 217.82606978 -2.64825957 217.82606978 -3 214 C-3.66 213.67 -4.32 213.34 -5 213 C-5.27328125 213.59425781 -5.5465625 214.18851563 -5.828125 214.80078125 C-10.39417394 223.3697331 -20.00421864 228.10937645 -28 233 C-28.66 232.34 -29.32 231.68 -30 231 C-29.51644043 230.67314209 -29.03288086 230.34628418 -28.53466797 230.00952148 C-26.30768047 228.49567043 -24.09142927 226.96676329 -21.875 225.4375 C-21.11445313 224.92380859 -20.35390625 224.41011719 -19.5703125 223.88085938 C-14.75954008 220.54234921 -10.15010791 217.03110207 -7 212 C-7 211.01 -7 210.02 -7 209 C-10.17825992 209.58424529 -11.83362825 210.48498043 -14.1640625 212.69921875 C-18.2434841 216.3363589 -22.66293328 219.06881259 -27.375 221.8125 C-28.17421875 222.30169922 -28.9734375 222.79089844 -29.796875 223.29492188 C-34.95412204 226.31166104 -39.89742341 228.50428756 -46 228 C-46.99 227.34 -47.98 226.68 -49 226 C-48.835 224.700625 -48.67 223.40125 -48.5 222.0625 C-47.9684362 217.34580713 -47.92470459 212.74361065 -48 208 C-49.32 207.34 -50.64 206.68 -52 206 C-52.020625 207.155 -52.04125 208.31 -52.0625 209.5 C-52.54866582 214.30182245 -54.39762935 218.1049873 -56.5 222.375 C-60.85327162 231.39108985 -61.07513605 240.12497622 -61 250 C-69.61989662 248.51110877 -77.99102752 246.55821605 -86.375 244.0625 C-87.19387695 243.82192871 -88.01275391 243.58135742 -88.85644531 243.33349609 C-94.4455574 241.63192197 -99.71539567 239.48719847 -105 237 C-99.89129762 230.23848214 -95.16170126 227.95611226 -86.6875 226.5625 C-79.85662563 225.39013283 -73.14012827 223.91827615 -66.40893555 222.26977539 C-61.18668215 221 -61.18668215 221 -59 221 C-57.8768749 217.01382581 -57.8768749 217.01382581 -58 213 C-59.6878343 210.91205239 -61.56586729 209.4631045 -63.6875 207.8203125 C-75.44958095 198.56164743 -85.43104534 182.73406752 -88 168 C-88.07649781 166.38038502 -88.10811681 164.75810555 -88.09765625 163.13671875 C-88.09443359 162.25048828 -88.09121094 161.36425781 -88.08789062 160.45117188 C-88.07951172 159.53916016 -88.07113281 158.62714844 -88.0625 157.6875 C-88.05798828 156.75615234 -88.05347656 155.82480469 -88.04882812 154.86523438 C-88.03709234 152.57675627 -88.02067363 150.28841192 -88 148 C-88.94617188 147.731875 -89.89234375 147.46375 -90.8671875 147.1875 C-94.43246983 145.83607129 -95.37887247 144.49225506 -97.05859375 141.1328125 C-102.87641586 127.95218647 -106.09323235 113.18201399 -101.05859375 99.08984375 C-98.98683171 94.99983382 -96.16122966 91.08061483 -92 89 C-90.00039988 88.960008 -87.99952758 88.95653201 -86 89 C-86.495 88.01 -86.495 88.01 -87 87 C-87.20330981 85.5881263 -87.36476081 84.17001147 -87.5 82.75 C-87.76344703 80.1238931 -88.07551084 77.5972755 -88.5625 75 C-90.01612903 65.03225806 -90.01612903 65.03225806 -88 61 C-87.34 61 -86.68 61 -86 61 C-86.2475 60.113125 -86.495 59.22625 -86.75 58.3125 C-87.07483664 54.00841457 -85.62899197 53.26632336 -83 50 C-82.83322718 46.41656024 -82.83322718 46.41656024 -83 43 C-82.34 42.01 -81.68 41.02 -81 40 C-80.25450395 37.70206987 -79.61183799 35.38921287 -78.9765625 33.05859375 C-77.74387506 30.46008863 -76.59540113 30.09516926 -74 29 C-73.319375 28.29875 -72.63875 27.5975 -71.9375 26.875 C-70 25 -70 25 -67 25 C-66.9071875 23.88625 -66.9071875 23.88625 -66.8125 22.75 C-65.72058689 19.05429407 -64.27584369 17.96550622 -61 16 C-57.6875 15.75 -57.6875 15.75 -55 16 C-54.731875 15.236875 -54.46375 14.47375 -54.1875 13.6875 C-52.35665914 9.54401806 -52.35665914 9.54401806 -50 8 C-47.66666667 8 -45.33333333 8 -43 8 C-42.525625 7.505 -42.05125 7.01 -41.5625 6.5 C-40 5 -40 5 -36.1875 5.0625 C-35.12402344 5.11083984 -35.12402344 5.11083984 -34.0390625 5.16015625 C-31.6913121 5.14547232 -31.6913121 5.14547232 -29.0625 3 C-24.9810442 0.33455948 -21.75495632 0.35600777 -17 1 C-15.63875 1.5878125 -15.63875 1.5878125 -14.25 2.1875 C-13.5075 2.455625 -12.765 2.72375 -12 3 C-7.54359151 0.41997403 -5.29212195 -0.56701307 0 0 Z M-35 46 C-35.66 46.33 -36.32 46.66 -37 47 C-39.37402501 47.07116382 -41.75000677 47.08409085 -44.125 47.0625 C-45.40632813 47.05347656 -46.68765625 47.04445312 -48.0078125 47.03515625 C-49.48894531 47.01775391 -49.48894531 47.01775391 -51 47 C-51.33 47.99 -51.66 48.98 -52 50 C-52.99 50 -53.98 50 -55 50 C-55.23783203 50.88751953 -55.23783203 50.88751953 -55.48046875 51.79296875 C-57.45557154 58.48212903 -57.45557154 58.48212903 -60.5625 61.4375 C-63.69554578 64.73121479 -63.94174448 67.38619304 -64.54296875 71.79296875 C-65 74 -65 74 -67 76 C-67.495 77.155 -67.99 78.31 -68.5 79.5 C-70 83 -70 83 -72 85 C-72.72829672 86.8819705 -72.72829672 86.8819705 -73.3125 89.125 C-74.85017821 94.51471902 -76.51102139 99.85748136 -78.19848633 105.20166016 C-78.60922917 106.50870197 -79.01607555 107.81697488 -79.41894531 109.12646484 C-79.95559727 110.8568292 -80.51769404 112.57924716 -81.08203125 114.30078125 C-82.29316886 119.18140812 -82.73189679 123.99451276 -83.125 129 C-83.2077417 130.04510742 -83.2904834 131.09021484 -83.37573242 132.16699219 C-85.25863016 157.96636804 -84.66101458 178.07151903 -67.08398438 198.51147461 C-63.86642096 202.1570679 -60.54140963 205.66720076 -57 209 C-56.34 209 -55.68 209 -55 209 C-54.34 207.35 -53.68 205.7 -53 204 C-48.4993598 203.63508323 -48.4993598 203.63508323 -46.375 205.1875 C-44.581605 207.55152068 -44.50336322 209.24820634 -44.3125 212.1875 C-44.24675781 213.08855469 -44.18101562 213.98960937 -44.11328125 214.91796875 C-44.05720703 215.94857422 -44.05720703 215.94857422 -44 217 C-42.60993485 217.53603819 -41.21257351 218.05317473 -39.8125 218.5625 C-38.64654297 218.99755859 -38.64654297 218.99755859 -37.45703125 219.44140625 C-32.08146675 220.66351392 -28.02322768 218.18816125 -23.46484375 215.609375 C-20.73459868 213.82671102 -18.34807942 211.81050881 -15.875 209.6875 C-10.81821937 205.47614988 -10.81821937 205.47614988 -6.875 205.5 C-5.92625 205.665 -4.9775 205.83 -4 206 C-3.731875 206.721875 -3.46375 207.44375 -3.1875 208.1875 C-2.01017502 210.97590126 -0.60854116 213.44095724 1 216 C13.10968632 214.64623721 25.2407129 206.02490253 33 197 C38.41532184 189.40265977 42.4322533 181.29911476 46.25 172.8125 C46.765625 171.68908203 47.28125 170.56566406 47.8125 169.40820312 C49.23626987 166.28361539 50.62731793 163.14731415 52 160 C52.47058838 158.94993774 52.47058838 158.94993774 52.95068359 157.87866211 C55.47834973 151.809241 56.21126629 145.41038957 57.125 138.9375 C57.29386719 137.79216797 57.46273437 136.64683594 57.63671875 135.46679688 C57.95965572 133.26853698 58.27793371 131.06958595 58.59082031 128.86987305 C58.83284752 127.17236119 59.08007161 125.47555402 59.33886719 123.78051758 C59.7991775 120.75821694 60.1008487 117.86947636 60 114.8125 C60 111 60 111 60.5625 108.9375 C61.24994267 105.89311101 60.46733848 103.06366334 60 100 C59.61985335 94.58291025 60.55994552 91.77401964 63 87 C62.92393164 84.86196946 62.92393164 84.86196946 62 83 C61.7525 82.29875 61.505 81.5975 61.25 80.875 C60.10509479 78.74586534 60.10509479 78.74586534 57.4375 78.125 C56.2309375 77.568125 56.2309375 77.568125 55 77 C54.1875 73.875 54.1875 73.875 54 71 C52.906875 70.7525 51.81375 70.505 50.6875 70.25 C47 69 47 69 45.640625 66.9453125 C44.11589754 64.71075107 44.11589754 64.71075107 41.22265625 64.5390625 C40.17980469 64.56742188 39.13695312 64.59578125 38.0625 64.625 C36.50208984 64.64433594 36.50208984 64.64433594 34.91015625 64.6640625 C32.06900694 64.9920341 30.46158901 65.63304385 28 67 C23.8695835 67.53874998 22.41472944 67.28777145 18.9375 64.875 C17.968125 64.25625 16.99875 63.6375 16 63 C13.53770003 63.71745356 13.53770003 63.71745356 11 65 C7.05853259 65.58450619 3.94674619 65.69760246 0.625 63.25 C-1 61 -1 61 -1.8125 58.8125 C-2.4003125 57.9153125 -2.4003125 57.9153125 -3 57 C-5.3260857 56.61936779 -7.66055264 56.28730055 -10 56 C-11.875 54.8125 -11.875 54.8125 -13 53 C-13.6875 49.8125 -13.6875 49.8125 -14 47 C-15.134375 47.165 -16.26875 47.33 -17.4375 47.5 C-29.13865846 48.93406738 -29.13865846 48.93406738 -33.140625 46.92578125 C-33.75421875 46.62027344 -34.3678125 46.31476563 -35 46 Z " fill="#0B0908" transform="translate(218,140)"/>
<path d="M0 0 C-0.78375 0.7425 -1.5675 1.485 -2.375 2.25 C-4.56504531 4.54433318 -5.82731386 6.12158858 -7 9 C-6.46375 8.319375 -5.9275 7.63875 -5.375 6.9375 C-3 5 -3 5 0 5.1875 C1.71256388 5.65131938 3.42283483 6.12436319 5.125 6.625 C7.36687823 7.07337565 8.84452828 6.6928302 11 6 C11 4.68 11 3.36 11 2 C12.0625 0.25 12.0625 0.25 14 -1 C17.5 -1.4375 17.5 -1.4375 21 -1 C22.9375 1 22.9375 1 24 3 C22.35 3.33 20.7 3.66 19 4 C19.598125 4.12375 20.19625 4.2475 20.8125 4.375 C23 5 23 5 26 7 C26.28875 6.360625 26.5775 5.72125 26.875 5.0625 C28 3 28 3 30 2 C34.82911 1.47862706 38.74166846 1.26597327 43 3.75 C44.81419017 5.79096395 46.00604367 7.46992934 47 10 C47.99 9.67 48.98 9.34 50 9 C56.98561276 8.21130179 56.98561276 8.21130179 59.6328125 10.26953125 C63 14.22357143 63 14.22357143 63 17 C63.78375 16.95875 64.5675 16.9175 65.375 16.875 C68 17 68 17 70 19 C70.625 21.125 70.625 21.125 71 23 C72.2065625 23.2165625 72.2065625 23.2165625 73.4375 23.4375 C76 24 76 24 77 25 C77.04063832 26.66617115 77.042721 28.33388095 77 30 C77.60328125 29.94199219 78.2065625 29.88398438 78.828125 29.82421875 C85.34443704 29.45636243 85.34443704 29.45636243 88.5625 32.125 C90.18208328 35.36416656 90.3324874 37.42576047 90 41 C91.65 41 93.3 41 95 41 C95.4021875 42.423125 95.4021875 42.423125 95.8125 43.875 C96.74986588 47.25267273 96.74986588 47.25267273 100 49 C99.125 54.75 99.125 54.75 98 57 C98.99 57 99.98 57 101 57 C101 58.65 101 60.3 101 62 C101.639375 62.268125 102.27875 62.53625 102.9375 62.8125 C105 64 105 64 106 67 C104.92745123 69.51698632 103.45196548 71.66805545 102 74 C103.65 74.66 105.3 75.32 107 76 C106.01 77.98 106.01 77.98 105 80 C101.846502 79.29922267 98.91038896 78.4158649 96 77 C95.67 76.01 95.34 75.02 95 74 C94.38125 73.87625 93.7625 73.7525 93.125 73.625 C91 73 91 73 89.6875 70.625 C87.33255475 66.96175183 85.03723801 66.49527334 81 65 C80.67 64.67 80.34 64.34 80 64 C80.28730055 61.66055264 80.61936779 59.3260857 81 57 C80.21625 56.896875 79.4325 56.79375 78.625 56.6875 C76 56 76 56 74 53 C74 52.01 74 51.02 74 50 C73.0925 50 72.185 50 71.25 50 C68.83333333 50 66.41666667 50 64 50 C63.01 50.99 63.01 50.99 62 52 C59.51511133 51.67304096 57.25723115 51.08322184 54.875 50.3125 C52.67085333 49.72547363 52.67085333 49.72547363 50 52 C46.5 52.3125 46.5 52.3125 43 52 C42.505 51.484375 42.01 50.96875 41.5 50.4375 C41.005 49.963125 40.51 49.48875 40 49 C38.948125 49.20625 37.89625 49.4125 36.8125 49.625 C32.06393486 50.09207198 30.78755416 48.84663368 27.0546875 46.203125 C24.80706271 44.88702531 23.26373761 44.58260889 20.6875 44.375 C17 44 17 44 15.0625 42.8125 C13.5847343 40.29160556 13.31972654 37.8775389 13 35 C11.948125 34.9175 10.89625 34.835 9.8125 34.75 C5.66766898 33.93462341 4.19881948 32.59363742 1 30 C-2.10405796 30.18259164 -3.34164013 31.22776009 -6 33 C-8.62890625 33.16015625 -8.62890625 33.16015625 -11.5625 33.0625 C-15.43090293 32.83191303 -15.43090293 32.83191303 -19 34 C-25.53333333 34.23333333 -25.53333333 34.23333333 -28 33 C-31 32.66666667 -31 32.66666667 -34 33 C-34.66 33.99 -35.32 34.98 -36 36 C-38.625 36.6875 -38.625 36.6875 -41 37 C-41.33 37.99 -41.66 38.98 -42 40 C-43.6396875 39.9690625 -43.6396875 39.9690625 -45.3125 39.9375 C-48.94384191 39.81455548 -48.94384191 39.81455548 -52 41 C-52 41.66 -52 42.32 -52 43 C-53.98 42.67 -55.96 42.34 -58 42 C-58 40.35 -58 38.7 -58 37 C-54.91190305 35.23537317 -53.76687864 35 -50 35 C-50 34.34 -50 33.68 -50 33 C-51.65 33 -53.3 33 -55 33 C-54.75 30.625 -54.75 30.625 -54 28 C-52 26.8125 -52 26.8125 -50 26 C-49.67 25.34 -49.34 24.68 -49 24 C-46.4375 23.375 -46.4375 23.375 -44 23 C-43.690625 21.865625 -43.38125 20.73125 -43.0625 19.5625 C-42 16 -42 16 -41 15 C-39.31391034 14.92794489 -37.62499341 14.91613932 -35.9375 14.9375 C-35.01839844 14.94652344 -34.09929687 14.95554688 -33.15234375 14.96484375 C-32.44207031 14.97644531 -31.73179687 14.98804688 -31 15 C-30.855625 13.865625 -30.71125 12.73125 -30.5625 11.5625 C-30 8 -30 8 -29 7 C-27.47480724 7.08937803 -25.95318071 7.24537146 -24.4375 7.4375 C-23.61121094 7.53933594 -22.78492188 7.64117187 -21.93359375 7.74609375 C-21.29550781 7.82988281 -20.65742188 7.91367188 -20 8 C-19.34 6.35 -18.68 4.7 -18 3 C-17.401875 3.33 -16.80375 3.66 -16.1875 4 C-13.94613529 5.20787988 -13.94613529 5.20787988 -11 5 C-9.29220027 3.37550757 -7.62449243 1.70779973 -6 0 C-3.50907189 -1.24546405 -2.58919267 -0.7767578 0 0 Z " fill="#492D2A" transform="translate(198,146)"/>
<path d="M0 0 C2 0.875 2 0.875 3.8125 2.375 C6.76917479 4.40243414 9.47928577 4.53646979 13 4.875 C13.20496094 5.44089844 13.40992188 6.00679687 13.62109375 6.58984375 C13.89050781 7.32332031 14.15992188 8.05679688 14.4375 8.8125 C14.70433594 9.54339844 14.97117187 10.27429688 15.24609375 11.02734375 C15.85386948 12.85805678 15.85386948 12.85805678 17 13.875 C18.55786803 14.17131765 20.1216035 14.43705019 21.6875 14.6875 C25.34835756 15.36351063 27.03794289 15.90103924 30.1875 18.0625 C33.88185494 20.44330652 35.79151987 19.58964757 40 18.875 C41.02104551 19.85350195 42.0206121 20.85480427 43 21.875 C47.36706908 22.26491688 49.30513897 22.33824069 53 19.875 C54.875 20.1875 54.875 20.1875 57 20.875 C59.51176074 21.69431089 59.51176074 21.69431089 62 21.875 C62.45246094 21.37613281 62.90492188 20.87726563 63.37109375 20.36328125 C65 18.875 65 18.875 67.15625 18.80859375 C69.58187442 19.330103 71.73710238 19.84756806 74 20.875 C75.8125 23.9375 75.8125 23.9375 77 26.875 C79.07690578 27.83544102 79.07690578 27.83544102 81 27.875 C81 30.185 81 32.495 81 34.875 C81.55429687 35.10574219 82.10859375 35.33648437 82.6796875 35.57421875 C88.74874735 38.30637559 88.74874735 38.30637559 90.1875 41.5625 C90.455625 42.325625 90.72375 43.08875 91 43.875 C93.54775306 44.76886164 93.54775306 44.76886164 96 44.875 C96 45.865 96 46.855 96 47.875 C96.78375 47.978125 97.5675 48.08125 98.375 48.1875 C101 48.875 101 48.875 103 51.875 C103.38499891 53.53049531 103.72793135 55.1972433 104 56.875 C103.34 57.225625 102.68 57.57625 102 57.9375 C99.58162005 59.82416611 99.58162005 59.82416611 99.9375 63.4375 C99.9684375 65.1390625 99.9684375 65.1390625 100 66.875 C99.01 67.535 98.02 68.195 97 68.875 C97.02320313 69.78894531 97.04640625 70.70289063 97.0703125 71.64453125 C96.97808827 75.88172208 95.54822902 77.32903981 92.875 80.5625 C88.5316134 86.04491058 85.13274956 91.63407147 82 97.875 C80.86975027 94.48425082 81.25539259 92.32817932 82 88.875 C82.18378475 85.23606192 82.31519017 81.59890977 82.42578125 77.95703125 C83 74.875 83 74.875 85.04296875 73.44921875 C85.68878906 73.25972656 86.33460938 73.07023437 87 72.875 C85.7934375 71.9778125 85.7934375 71.9778125 84.5625 71.0625 C82 68.875 82 68.875 81 65.875 C80.01 67.855 80.01 67.855 79 69.875 C78.69990642 63.00619134 78.49119749 57.97726524 82 51.875 C81.84311576 49.74683587 81.84311576 49.74683587 81 47.875 C80.66666667 46.54166667 80.33333333 45.20833333 80 43.875 C79.195625 43.730625 78.39125 43.58625 77.5625 43.4375 C75 42.875 75 42.875 74 41.875 C73.95919217 39.87541636 73.95745644 37.87454746 74 35.875 C73.0925 35.9575 72.185 36.04 71.25 36.125 C68 35.875 68 35.875 65.625 34 C64 31.875 64 31.875 64 29.875 C63.34 30.205 62.68 30.535 62 30.875 C59.4965879 30.90552942 57.00946037 30.80818882 54.5078125 30.71484375 C51.80654329 30.88735471 50.34473967 31.58933392 48 32.875 C43.8695835 33.41374998 42.41472944 33.16277145 38.9375 30.75 C37.968125 30.13125 36.99875 29.5125 36 28.875 C33.53770003 29.59245356 33.53770003 29.59245356 31 30.875 C28.24117645 31.34231093 25.74873145 31.43029928 23 30.875 C19.78045355 28.34046343 18.29567565 26.76202695 17 22.875 C15.9275 22.7925 14.855 22.71 13.75 22.625 C9.6683333 21.80866666 8.30824813 21.29120723 6 17.875 C5.75 14.625 5.75 14.625 6 11.875 C4.865625 12.205 3.73125 12.535 2.5625 12.875 C-2.49511144 14.13266537 -8.33210142 15.21868615 -13.140625 12.796875 C-13.75421875 12.49265625 -14.3678125 12.1884375 -15 11.875 C-15.66 12.205 -16.32 12.535 -17 12.875 C-19.37402501 12.94616382 -21.75000677 12.95909085 -24.125 12.9375 C-25.40632813 12.92847656 -26.68765625 12.91945312 -28.0078125 12.91015625 C-29.48894531 12.89275391 -29.48894531 12.89275391 -31 12.875 C-31.33 13.535 -31.66 14.195 -32 14.875 C-32.99 14.875 -33.98 14.875 -35 14.875 C-35.0825 16.1125 -35.165 17.35 -35.25 18.625 C-35.63527075 21.77416961 -35.92308083 22.77574946 -37.9375 25.375 C-40 26.875 -40 26.875 -42 26.875 C-42.33 28.525 -42.66 30.175 -43 31.875 C-43.66 31.875 -44.32 31.875 -45 31.875 C-45.103125 32.638125 -45.20625 33.40125 -45.3125 34.1875 C-46.06124739 37.11442162 -46.51692929 38.19005916 -49 39.875 C-51.6875 40.0625 -51.6875 40.0625 -54 39.875 C-54 40.535 -54 41.195 -54 41.875 C-52.68 41.875 -51.36 41.875 -50 41.875 C-51.75 46.75 -51.75 46.75 -54 47.875 C-54.85800217 50.59275556 -55.47281172 53.33863416 -56.12109375 56.11328125 C-57.01370001 58.91804849 -58.10386798 60.65140228 -60 62.875 C-62.88868059 59.98631941 -62.60376221 52.78334548 -63 48.875 C-62.90076022 46.0797461 -62.53977018 43.62782792 -62 40.875 C-62.66 40.875 -63.32 40.875 -64 40.875 C-63.814375 39.823125 -63.62875 38.77125 -63.4375 37.6875 C-63.04920669 34.30380118 -63.11752515 32.11074112 -64 28.875 C-62.35 28.545 -60.7 28.215 -59 27.875 C-59.495 27.2975 -59.99 26.72 -60.5 26.125 C-62 23.875 -62 23.875 -62 19.875 C-60.35 19.545 -58.7 19.215 -57 18.875 C-57.33 18.153125 -57.66 17.43125 -58 16.6875 C-59.00603529 13.85802573 -59.16977402 11.84604534 -59 8.875 C-58.67 10.195 -58.34 11.515 -58 12.875 C-55.03 13.37 -55.03 13.37 -52 13.875 C-52 13.215 -52 12.555 -52 11.875 C-48.1496895 9.30812633 -46.41430237 10.04211276 -42 10.875 C-41.67 9.555 -41.34 8.235 -41 6.875 C-39.35 6.875 -37.7 6.875 -36 6.875 C-35.34 5.555 -34.68 4.235 -34 2.875 C-28.25 2.75 -28.25 2.75 -26 3.875 C-22.56737452 4.00702406 -19.39140699 3.9402345 -16 3.375 C-13 2.875 -13 2.875 -9.375 3 C-5.3356048 2.85039277 -3.64107671 -0.22756729 0 0 Z " fill="#2A0F0C" transform="translate(198,175.125)"/>
<path d="M0 0 C3.875 0.875 3.875 0.875 5 2 C5.45790557 8.03357931 4.7591914 14.02136775 4 20 C7.54764783 21.77382391 11.23292942 20.85585519 15 20 C18.37362435 18.57988977 21.44118319 16.77867416 24.5625 14.875 C25.36107422 14.41351563 26.15964844 13.95203125 26.98242188 13.4765625 C31.94544096 10.53191874 36.0986894 7.30171371 40.19116211 3.22705078 C42 2 42 2 44.22875977 2.30810547 C45.10552368 2.65059326 45.10552368 2.65059326 46 3 C45.85928028 7.64375073 43.71853493 9.90902044 40.51953125 12.953125 C35.01340519 17.42631889 28.96977117 21.18149772 23 25 C27.15722231 25 29.50618722 22.85055198 32.75 20.5 C33.68900146 19.82638428 33.68900146 19.82638428 34.64697266 19.13916016 C39.43417874 15.61508885 43.44207751 11.78848214 47 7 C47.99 7.33 48.98 7.66 50 8 C49.21968824 15.08440941 46.01146692 19.09387923 41 24 C30.49603803 32 30.49603803 32 26 32 C26 32.66 26 33.32 26 34 C27.89957501 33.09111244 29.79450786 32.17251969 31.6875 31.25 C32.74324219 30.73953125 33.79898438 30.2290625 34.88671875 29.703125 C39.21040802 27.33784455 42.74203614 24.61001171 45.8125 20.75 C46.534375 19.8425 47.25625 18.935 48 18 C49 21 49 21 48.0234375 23.34765625 C43.59309013 30.64408141 38.54785907 35.14792151 31.6953125 40.00390625 C28.95049885 41.72181708 28.95049885 41.72181708 28 44 C30.58734799 42.0887068 33.16912771 40.1700261 35.75 38.25 C36.47960937 37.71117187 37.20921875 37.17234375 37.9609375 36.6171875 C41.55437362 33.93844421 44.94875718 31.30818958 48 28 C46.71630721 32.70916178 45.00738868 35.56518659 41.6875 39.125 C40.92824219 39.95257813 40.16898438 40.78015625 39.38671875 41.6328125 C33.18616899 47.78262127 33.18616899 47.78262127 29.29296875 48.49609375 C16.94315857 48.26307846 2.76585622 47.92195207 -9 44 C-9.81943432 32.03365762 -9.09426087 23.25920622 -3.69140625 12.4921875 C-1.66553232 8.30943624 -0.73326751 4.56255338 0 0 Z " fill="#F2B894" transform="translate(166,346)"/>
<path d="M0 0 C6.11558257 0.5812831 11.90972733 1.56033062 17.875 3 C22.97846061 4.1983409 27.87373448 5.20663321 33.125 5.5 C39.57285761 5.9357999 44.14356033 7.95791636 48.5 12.75 C48.995 13.4925 49.49 14.235 50 15 C46.0956744 17.24731739 41.87778742 18.26900052 37.5625 19.4375 C36.74974609 19.65776855 35.93699219 19.87803711 35.09960938 20.10498047 C33.46838321 20.54373517 31.83639448 20.97966574 30.20361328 21.41259766 C28.41195877 21.89018693 26.62511186 22.38578444 24.83984375 22.88671875 C8.18927085 27.21540964 -9.83119911 28.7002381 -27 28 C-22.88040856 23.85343906 -19.45340546 20.64626583 -14.125 18.25 C-6.31430643 14.40272528 -3.09162137 7.80934207 0 0 Z " fill="#373F4E" transform="translate(230,366)"/>
<path d="M0 0 C4.25751925 0.06069783 8.08414179 1.20211391 12.1484375 2.39453125 C15.22671809 3.27923394 18.31950696 4.01885771 21.4375 4.75 C26.64308795 6.05139699 31.12401584 7.31356372 35.0625 11.125 C36.125 13.25 36.125 13.25 36.1875 15.6875 C34.66942486 19.34874004 32.29998919 20.96400778 29.125 23.25 C21.50882597 25.78872468 11.15358332 25.62114754 3.6015625 23.05078125 C0.93958973 21.60310565 -1.4619339 20.0787562 -3.875 18.25 C-4.926875 17.46625 -5.97875 16.6825 -7.0625 15.875 C-7.660625 15.33875 -8.25875 14.8025 -8.875 14.25 C-7.31798069 9.57894208 -4.79052627 6.16294315 -1.875 2.25 C-2.535 1.92 -3.195 1.59 -3.875 1.25 C-2.875 0.25 -2.875 0.25 0 0 Z " fill="#100D0B" transform="translate(227.875,259.75)"/>
<path d="M0 0 C2.20526248 0.61673709 4.40708356 1.24589914 6.60546875 1.88671875 C8.28286133 2.34981445 8.28286133 2.34981445 9.99414062 2.82226562 C18.98806654 5.38502196 18.98806654 5.38502196 22.79296875 8.57421875 C22.46296875 9.23421875 22.13296875 9.89421875 21.79296875 10.57421875 C21.13296875 10.24421875 20.47296875 9.91421875 19.79296875 9.57421875 C20.28796875 10.56421875 20.28796875 10.56421875 20.79296875 11.57421875 C20.86330644 13.4480148 20.87727095 15.32422977 20.85546875 17.19921875 C20.84644531 18.20210938 20.83742187 19.205 20.828125 20.23828125 C20.81652344 21.00914062 20.80492187 21.78 20.79296875 22.57421875 C12.7100554 25.2685232 2.59937522 24.8908343 -5.15893555 21.36132812 C-11.1954684 18.2992118 -16.51830737 14.94778012 -19.0546875 8.37890625 C-19.42020381 5.09590525 -19.43637469 2.99120681 -17.83203125 0.07421875 C-12.27614995 -3.10057056 -5.90796924 -1.5013681 0 0 Z " fill="#0B0908" transform="translate(171.20703125,244.42578125)"/>
<path d="M0 0 C-0.33 7.26 -0.66 14.52 -1 22 C-6.08382942 21.36452132 -10.07628827 20.85271835 -14.8203125 19.44140625 C-16.36525391 18.98604492 -16.36525391 18.98604492 -17.94140625 18.52148438 C-18.99199219 18.20501953 -20.04257813 17.88855469 -21.125 17.5625 C-22.18332031 17.24990234 -23.24164063 16.93730469 -24.33203125 16.61523438 C-29.24939578 15.15606661 -34.14922448 13.67007669 -39 12 C-33.99269158 6.56349372 -30.11168992 4.99597966 -22.875 4.0625 C-17.56067445 3.30933595 -12.5636978 2.16443133 -7.4375 0.5859375 C-5 0 -5 0 0 0 Z " fill="#383F4E" transform="translate(155,367)"/>
<path d="M0 0 C2.32392917 1.69266957 2.93308354 2.64366984 3.46875 5.49609375 C3.58970392 16.88088184 -0.56244213 27.33578853 -8 36 C-17.18031991 44.84231108 -17.18031991 44.84231108 -21.83984375 45.24609375 C-22.55269531 45.16488281 -23.26554687 45.08367187 -24 45 C-22.66222649 40.72424542 -21.01316489 36.78038141 -19.0625 32.75 C-17.13408114 28.6742355 -15.5625255 24.80182306 -14.4375 20.4375 C-13.30635252 16.24680303 -11.83479231 14.28014678 -8 12 C-7.67 12.66 -7.34 13.32 -7 14 C-6.95875 13.236875 -6.9175 12.47375 -6.875 11.6875 C-6 9 -6 9 -2.9375 7.1875 C-1.4834375 6.5996875 -1.4834375 6.5996875 0 6 C-3.95820859 6.56545837 -6.6659053 7.80902348 -10 10 C-7.27934486 -1.09190173 -7.27934486 -1.09190173 0 0 Z " fill="#C97A62" transform="translate(290,273)"/>
<path d="M0 0 C1.3303125 0.433125 1.3303125 0.433125 2.6875 0.875 C2.6875 3.515 2.6875 6.155 2.6875 8.875 C1.3675 7.885 0.0475 6.895 -1.3125 5.875 C-0.879375 6.7 -0.44625 7.525 0 8.375 C0.78817153 12.38750961 0.46896482 12.77436354 -1.6875 16 C-2.16960937 16.64195312 -2.65171875 17.28390625 -3.1484375 17.9453125 C-4.65685568 20.07024382 -4.65685568 20.07024382 -4.3125 23.875 C-4.13074219 23.32070313 -3.94898437 22.76640625 -3.76171875 22.1953125 C-3.51035156 21.47085938 -3.25898437 20.74640625 -3 20 C-2.75636719 19.28070313 -2.51273438 18.56140625 -2.26171875 17.8203125 C-1.3125 15.875 -1.3125 15.875 1.6875 13.875 C2.85718953 16.21437907 2.82114221 17.64869368 2.8125 20.25 C2.81507813 21.02085937 2.81765625 21.79171875 2.8203125 22.5859375 C2.6875 24.875 2.6875 24.875 2.19458008 26.75634766 C1.67880906 28.91131198 1.51618377 30.85089808 1.44140625 33.0625 C1.40853516 33.84367187 1.37566406 34.62484375 1.34179688 35.4296875 C1.28060428 37.05975407 1.22331163 38.68997171 1.16992188 40.3203125 C1.13576172 41.10148437 1.10160156 41.88265625 1.06640625 42.6875 C1.0413501 43.39519531 1.01629395 44.10289062 0.99047852 44.83203125 C0.64509135 47.16095938 -0.16545364 48.83274692 -1.3125 50.875 C-4.93665269 47.72994639 -6.38191561 44.79923874 -8 40.3125 C-8.41636719 39.17683594 -8.83273438 38.04117188 -9.26171875 36.87109375 C-12.69914426 27.06995856 -12.75963958 15.44524438 -8.3125 5.875 C-6.16651491 2.02440264 -4.72264626 -0.17821307 0 0 Z " fill="#CD7E65" transform="translate(130.3125,233.125)"/>
<path d="M0 0 C7.36198653 2.66358943 13.51732034 6.31112973 19.66796875 11.12890625 C19.33796875 13.43890625 19.00796875 15.74890625 18.66796875 18.12890625 C16.4609375 18.828125 16.4609375 18.828125 13.66796875 19.12890625 C11.34375 17.8359375 11.34375 17.8359375 8.98046875 15.94140625 C0.88235431 9.96934545 -6.09356097 7.3795899 -16.2578125 7.65625 C-20.75853394 8.34822877 -23.89150415 10.21849057 -27.33203125 13.12890625 C-26.10006962 6.8151029 -22.24153223 3.84171637 -17.33203125 0.12890625 C-12.20135372 -2.43643251 -5.35336997 -1.39953283 0 0 Z " fill="#3B2422" transform="translate(182.33203125,216.87109375)"/>
<path d="M0 0 C1.06323486 0.00241699 1.06323486 0.00241699 2.14794922 0.00488281 C11.05533106 0.20836612 20.84235908 2.28801456 27.625 8.375 C31.56904951 13.23974245 32.05634738 17.22829983 31.625 23.375 C29.48704958 21.23704958 27.43255741 19.14293688 25.5 16.8125 C18.79573454 11.12844885 9.51861037 10.82848642 1.0625 10.25 C-0.89742117 10.10538446 -2.85708017 9.95715383 -4.81640625 9.8046875 C-5.66920166 9.74522949 -6.52199707 9.68577148 -7.40063477 9.62451172 C-9.375 9.375 -9.375 9.375 -10.375 8.375 C-10.625 5.4375 -10.625 5.4375 -10.375 2.375 C-6.79719864 -0.0102009 -4.14323625 -0.00971906 0 0 Z " fill="#3C2523" transform="translate(236.375,239.625)"/>
<path d="M0 0 C0.226875 0.5775 0.45375 1.155 0.6875 1.75 C2.4029194 4.69071898 4.12861793 6.17275686 7 8 C10 8.75 10 8.75 13 8 C15.57285724 5.827365 17.48996919 4.02006162 19 1 C30.5653897 2.90885073 30.5653897 2.90885073 34 6 C34.5625 8.5 34.5625 8.5 34 11 C29.92407833 15.40199541 23.64815611 16.14259882 17.9375 16.5625 C12.80968028 16.48415831 8.95717911 14.98567171 4.4375 12.75 C3.82962646 12.45037354 3.22175293 12.15074707 2.59545898 11.84204102 C-0.75405413 10.05465394 -2.76192976 8.65756697 -4 5 C-2.68 3.35 -1.36 1.7 0 0 Z " fill="#F4F3F3" transform="translate(226,267)"/>
<path d="M0 0 C0.66 0 1.32 0 2 0 C2.25523437 0.93972656 2.25523437 0.93972656 2.515625 1.8984375 C2.75796875 2.71570313 3.0003125 3.53296875 3.25 4.375 C3.48203125 5.18710938 3.7140625 5.99921875 3.953125 6.8359375 C4.83646366 9.11640485 4.83646366 9.11640485 6.88671875 10.30078125 C10.16421687 11.38520299 12.68854193 10.78270827 16 10 C18.33596018 8.22789228 19.341093 6.4883605 21 4 C29.18462594 6.11050103 29.18462594 6.11050103 32.0625 9.25 C33.20500402 12.60134511 33.06196746 15.48024829 33 19 C20.75633136 19.60017984 11.66850248 19.83493967 2 11.375 C0 9 0 9 -2 6 C-1.45945946 1.45945946 -1.45945946 1.45945946 0 0 Z " fill="#F8F7F7" transform="translate(157,247)"/>
<path d="M0 0 C2.32392917 1.69266957 2.93308354 2.64366984 3.46875 5.49609375 C3.58970392 16.88088184 -0.56244213 27.33578853 -8 36 C-17.18031991 44.84231108 -17.18031991 44.84231108 -21.83984375 45.24609375 C-22.55269531 45.16488281 -23.26554687 45.08367187 -24 45 C-23.5625 42.25 -23.5625 42.25 -22 39 C-20.1796875 38.16796875 -20.1796875 38.16796875 -17.9375 37.4375 C-10.48457178 34.61551747 -6.0587029 26.36154685 -2.78125 19.41796875 C-1.93979076 16.8136524 -1.6293379 14.47654717 -1.4375 11.75 C-1.10047847 7.10047847 -1.10047847 7.10047847 0 6 C-3.95820859 6.56545837 -6.6659053 7.80902348 -10 10 C-7.27934486 -1.09190173 -7.27934486 -1.09190173 0 0 Z " fill="#ECB391" transform="translate(290,273)"/>
<path d="M0 0 C1.3303125 0.433125 1.3303125 0.433125 2.6875 0.875 C2.6875 3.515 2.6875 6.155 2.6875 8.875 C1.0375 7.555 -0.6125 6.235 -2.3125 4.875 C-7.25888975 13.35452529 -7.64208069 24.27263014 -5.7421875 33.70703125 C-4.24522009 38.61701514 -4.24522009 38.61701514 -0.3125 41.875 C-0.01953125 44.0390625 -0.01953125 44.0390625 -0.125 46.5 C-0.15207031 47.31726563 -0.17914063 48.13453125 -0.20703125 48.9765625 C-0.24183594 49.60304688 -0.27664062 50.22953125 -0.3125 50.875 C-3.10860849 49.84579411 -4.16973527 49.11280976 -5.7265625 46.51953125 C-6.12617187 45.58496094 -6.52578125 44.65039062 -6.9375 43.6875 C-7.34226562 42.76582031 -7.74703125 41.84414063 -8.1640625 40.89453125 C-12.18884675 30.31236043 -13.1633554 18.8028576 -9.2890625 7.9765625 C-5.48627818 -0.20702937 -5.48627818 -0.20702937 0 0 Z " fill="#E7AF8E" transform="translate(130.3125,233.125)"/>
<path d="M0 0 C0.66 0 1.32 0 2 0 C2.66 1.32 3.32 2.64 4 4 C7.41642759 4.25015873 7.41642759 4.25015873 11 4 C11.66 3.01 12.32 2.02 13 1 C13.66 1 14.32 1 15 1 C15.4125 1.66 15.825 2.32 16.25 3 C17.90933823 5.3664015 17.90933823 5.3664015 21.1875 5.25 C22.115625 5.1675 23.04375 5.085 24 5 C24.33 4.01 24.66 3.02 25 2 C25.495 2.495 25.495 2.495 26 3 C27.68608966 3.07205511 29.37500659 3.08386068 31.0625 3.0625 C31.98160156 3.05347656 32.90070313 3.04445312 33.84765625 3.03515625 C34.55792969 3.02355469 35.26820313 3.01195312 36 3 C36.1953125 4.98567708 36.390625 6.97135417 36.5859375 8.95703125 C36.92665391 11.29988142 36.92665391 11.29988142 39 14 C38.01 14 37.02 14 36 14 C34 12 34 12 33.875 8.875 C33.91625 7.92625 33.9575 6.9775 34 6 C32.865625 6.33 31.73125 6.66 30.5625 7 C25.50488856 8.25766537 19.66789858 9.34368615 14.859375 6.921875 C13.93898438 6.46554688 13.93898438 6.46554688 13 6 C12.34 6.33 11.68 6.66 11 7 C8.62597499 7.07116382 6.24999323 7.08409085 3.875 7.0625 C2.59367187 7.05347656 1.31234375 7.04445312 -0.0078125 7.03515625 C-0.99523437 7.02355469 -1.98265625 7.01195312 -3 7 C-3.33 7.66 -3.66 8.32 -4 9 C-4.99 9 -5.98 9 -7 9 C-7.0825 10.2375 -7.165 11.475 -7.25 12.75 C-7.63082047 15.74367206 -7.91129998 16.8796214 -9.75 19.375 C-12.09406802 21.06793802 -14.26323377 22.08774459 -17 23 C-17 22.34 -17 21.68 -17 21 C-18.98 21 -20.96 21 -23 21 C-23 20.67 -23 20.34 -23 20 C-22.09507812 19.85304687 -22.09507812 19.85304687 -21.171875 19.703125 C-17.49535605 19.01526016 -14.62740439 18.42349797 -11.5 16.3125 C-9.53951428 13.29008451 -9.45848806 10.53690789 -9 7 C-8.01 6.34 -7.02 5.68 -6 5 C-6 4.01 -6 3.02 -6 2 C-4.02 2.66 -2.04 3.32 0 4 C0 2.68 0 1.36 0 0 Z " fill="#0C0806" transform="translate(170,181)"/>
<path d="M0 0 C1.33332095 2.6666419 0.67102033 4.16680303 0 7 C1.051875 6.896875 2.10375 6.79375 3.1875 6.6875 C7 7 7 7 9.1875 9.5 C12.57918159 12.51482808 13.59896778 12.28959965 18 12.1875 C19.5159375 12.08501953 19.5159375 12.08501953 21.0625 11.98046875 C24.197039 12.0013101 26.19170546 12.66296271 29 14 C29.33 11.36 29.66 8.72 30 6 C30.66 6.66 31.32 7.32 32 8 C31.54545455 13.45454545 31.54545455 13.45454545 29 16 C14.30134081 18.38517796 14.30134081 18.38517796 8.20703125 15.828125 C6.2948772 14.33390791 4.67493462 12.75006361 3 11 C2.01 10.505 1.02 10.01 0 9.5 C-0.66 9.005 -1.32 8.51 -2 8 C-2.4375 4.9375 -2.4375 4.9375 -2 2 C-1.34 1.34 -0.68 0.68 0 0 Z " fill="#944C3D" transform="translate(183,293)"/>
<path d="M0 0 C2.4375 -0.4375 2.4375 -0.4375 5 0 C6.97610386 2.04424538 8 3.1176825 8 6 C9.65 6 11.3 6 13 6 C13 6.66 13 7.32 13 8 C15.31 8.33 17.62 8.66 20 9 C20 9.66 20 10.32 20 11 C20.78375 10.95875 21.5675 10.9175 22.375 10.875 C25 11 25 11 27 13 C27.125 15.625 27.125 15.625 27 18 C27.969375 18.144375 28.93875 18.28875 29.9375 18.4375 C33 19 33 19 34 20 C34.04063832 21.66617115 34.042721 23.33388095 34 25 C33.34 24.67 32.68 24.34 32 24 C32 23.34 32 22.68 32 22 C29.69 21.67 27.38 21.34 25 21 C24.34 18.69 23.68 16.38 23 14 C22.195625 13.87625 21.39125 13.7525 20.5625 13.625 C19.716875 13.41875 18.87125 13.2125 18 13 C17.67 12.34 17.34 11.68 17 11 C15.02 11 13.04 11 11 11 C10.67 10.01 10.34 9.02 10 8 C7.69 7.67 5.38 7.34 3 7 C3.33 5.68 3.66 4.36 4 3 C2.02 3 0.04 3 -2 3 C-1.34 2.01 -0.68 1.02 0 0 Z " fill="#533A38" transform="translate(229,156)"/>
<path d="M0 0 C0.66 0.33 1.32 0.66 2 1 C1.97679687 1.62648437 1.95359375 2.25296875 1.9296875 2.8984375 C1.91164063 3.71570313 1.89359375 4.53296875 1.875 5.375 C1.85179687 6.18710938 1.82859375 6.99921875 1.8046875 7.8359375 C1.78629949 10.21342243 1.78629949 10.21342243 4 12 C6.21072977 12.24253813 6.21072977 12.24253813 8.625 12.125 C9.44226563 12.10695312 10.25953125 12.08890625 11.1015625 12.0703125 C11.72804688 12.04710937 12.35453125 12.02390625 13 12 C12.67 14.64 12.34 17.28 12 20 C14.78823655 21.0326802 15.8677274 21.04509293 18.75 20.0625 C19.4925 19.711875 20.235 19.36125 21 19 C19.68 20.65 18.36 22.3 17 24 C10.125 22.125 10.125 22.125 9 21 C8.95919217 19.00041636 8.95745644 16.99954746 9 15 C8.0925 15.0825 7.185 15.165 6.25 15.25 C3 15 3 15 0.625 13.125 C-1 11 -1 11 -1 9 C-1.99 9.495 -1.99 9.495 -3 10 C-5.50281998 10.06976502 -7.98936428 9.99726891 -10.4921875 9.9375 C-12.83737555 9.99594705 -14.76081676 10.33345243 -17 11 C-16.071875 9.88625 -16.071875 9.88625 -15.125 8.75 C-13.39562719 6.51198812 -12.13893339 4.56260013 -11 2 C-10.67 2 -10.34 2 -10 2 C-9.67 3.65 -9.34 5.3 -9 7 C-6.08347826 7.16681109 -6.08347826 7.16681109 -3 7 C-0.64046906 4.64046906 -0.50858587 3.22104383 0 0 Z " fill="#0B0605" transform="translate(263,196)"/>
<path d="M0 0 C3.3 0.33 6.6 0.66 10 1 C8.68 1.33 7.36 1.66 6 2 C6.66 3.65 7.32 5.3 8 7 C9.65 7 11.3 7 13 7 C13.66 5.68 14.32 4.36 15 3 C17.475 3.495 17.475 3.495 20 4 C19.14910882 7.48091844 18.5290166 9.53144244 15.8125 11.9375 C12.06790815 13.35212359 9.84121997 13.04760545 6 12 C1.49170626 8.95385558 1.01450183 5.07250913 0 0 Z " fill="#603E28" transform="translate(158,246)"/>
<path d="M0 0 C2.41820683 0.45115799 4.83432863 0.91061955 7.25 1.375 C8.27287109 1.56449219 8.27287109 1.56449219 9.31640625 1.7578125 C12.87493954 2.44878984 15.79244864 3.36281233 19 5 C20.90683752 5.36774724 22.82574158 5.67578091 24.75 5.9375 C29.87294425 6.72226474 34.23600374 7.98446312 39 10 C39 10.99 39 11.98 39 13 C35.96562499 12.56651786 33.15579599 12.05311227 30.25 11.0625 C27.54267695 10.17741362 25.03745019 9.58514691 22.25 9.0625 C18.68451147 8.38693375 15.27507683 7.52317858 11.8125 6.4375 C7.85977835 5.20110365 4.11389563 4.44716257 0 4 C0 2.68 0 1.36 0 0 Z " fill="#130E0B" transform="translate(172,319)"/>
<path d="M0 0 C2.8125 -0.5625 2.8125 -0.5625 6 0 C8.15342005 1.82900871 9.38103522 3.61916944 11 6 C11 6.66 11 7.32 11 8 C11.78375 7.95875 12.5675 7.9175 13.375 7.875 C16 8 16 8 18 10 C18.625 12.125 18.625 12.125 19 14 C21.475 14.495 21.475 14.495 24 15 C23.67 16.32 23.34 17.64 23 19 C16.25 16.375 16.25 16.375 14 13 C13.236875 12.938125 12.47375 12.87625 11.6875 12.8125 C8.35638983 11.80542018 8.19276631 10.96077397 6.5625 8 C4.60818397 4.41821927 4.60818397 4.41821927 0.6875 3 C-0.199375 3 -1.08625 3 -2 3 C-1.34 2.01 -0.68 1.02 0 0 Z " fill="#533B38" transform="translate(250,155)"/>
<path d="M0 0 C0.99 0 1.98 0 3 0 C3.66 1.65 4.32 3.3 5 5 C6.65 5 8.3 5 10 5 C10.33 3.68 10.66 2.36 11 1 C13.31 1.33 15.62 1.66 18 2 C14.88888889 9 14.88888889 9 11 11 C7.97117174 11.52675274 6.00890755 11.55719212 3.28125 10.05078125 C0.54693239 8.00649191 -0.89372899 6.66798923 -1.4375 3.25 C-1 1 -1 1 0 0 Z " fill="#5E3A24" transform="translate(228,265)"/>
<path d="M0 0 C0.78246094 -0.165 1.56492188 -0.33 2.37109375 -0.5 C6.73835325 -1.33062291 10.85550322 -0.54213834 15 1 C16.625 3.625 16.625 3.625 17 6 C16.01 5.67 15.02 5.34 14 5 C9.75325612 4.76835942 6.64397537 4.66785576 3 7 C3.33 5.68 3.66 4.36 4 3 C3.278125 3.185625 2.55625 3.37125 1.8125 3.5625 C-1 4 -1 4 -3.5625 3.375 C-6.09945447 2.71399794 -6.09945447 2.71399794 -8.3125 4.4375 C-8.869375 4.953125 -9.42625 5.46875 -10 6 C-9.60662881 3.71844707 -9.08713789 2.13299993 -7.8125 0.1875 C-5.08606133 -1.5987874 -3.11285774 -0.62257155 0 0 Z " fill="#553C3A" transform="translate(178,162)"/>
<path d="M0 0 C3.66544655 2.13817715 5.33577091 4.15947133 7 8 C7.66 8.66 8.32 9.32 9 10 C6.12312872 9.57379685 4.93428893 8.94316881 2.6875 7 C-0.6813637 4.49293864 -2.8184148 4.07336114 -7 4 C-7.928125 4.495 -8.85625 4.99 -9.8125 5.5 C-14.35668763 7.63844124 -18.15211264 6.79520682 -23 6 C-23 5.34 -23 4.68 -23 4 C-20.1875 3.375 -20.1875 3.375 -17 3 C-16.01 3.66 -15.02 4.32 -14 5 C-13.71125 4.360625 -13.4225 3.72125 -13.125 3.0625 C-10.5921371 -1.58108199 -4.64626884 -0.53413799 0 0 Z " fill="#533B39" transform="translate(238,148)"/>
<path d="M0 0 C1.423125 0.7425 1.423125 0.7425 2.875 1.5 C5.76009764 3.24107106 5.76009764 3.24107106 8.1875 2.6875 C9.0846875 2.3471875 9.0846875 2.3471875 10 2 C10.99 2 11.98 2 13 2 C12.4740625 2.928125 12.4740625 2.928125 11.9375 3.875 C11.628125 4.57625 11.31875 5.2775 11 6 C11.33 6.66 11.66 7.32 12 8 C4.375 9.25 4.375 9.25 1 7 C-2.84927445 7.29609803 -5.08761258 8.51907739 -8 11 C-7.49268371 6.60325886 -4.88085945 4.16191891 -2 1 C-1.34 0.67 -0.68 0.34 0 0 Z " fill="#442A27" transform="translate(198,145)"/>
<path d="M0 0 C2.33944736 0.28730055 4.6739143 0.61936779 7 1 C6.18391622 7.93671213 1.91399044 12.35900903 -3 17 C-3.66 16.67 -4.32 16.34 -5 16 C-4.525625 15.195625 -4.05125 14.39125 -3.5625 13.5625 C-1.9209573 9.81978264 -1.49405607 6.87979697 -1.2109375 2.85546875 C-1 1 -1 1 0 0 Z " fill="#EAB290" transform="translate(219,365)"/>
<path d="M0 0 C0.45375 0.70125 0.9075 1.4025 1.375 2.125 C7.0228783 8.31077147 14.16910285 11.92966381 22.49804688 12.34570312 C23.87808016 12.40706695 25.25830135 12.46433712 26.63867188 12.51757812 C31.78526139 12.78526139 31.78526139 12.78526139 34 15 C21.2954191 15.96899346 11.30881895 14.93847094 1.12890625 6.4375 C-0.52229212 4.33493599 -0.20962871 2.58542076 0 0 Z " fill="#2A2420" transform="translate(155,253)"/>
<path d="M0 0 C0.66 0.33 1.32 0.66 2 1 C1.44501605 5.99485552 -2.1525643 8.50113708 -5.86328125 11.51171875 C-16.87452771 20 -16.87452771 20 -22 20 C-22 19.34 -22 18.68 -22 18 C-19.89980986 16.52690889 -17.82232271 15.18690365 -15.625 13.875 C-14.72007812 13.31619141 -14.72007812 13.31619141 -13.796875 12.74609375 C-9.27034684 10 -9.27034684 10 -7 10 C-6.773125 9.46375 -6.54625 8.9275 -6.3125 8.375 C-4.56617944 5.21499137 -2.3597151 2.7323017 0 0 Z " fill="#2B1207" transform="translate(214,360)"/>
<path d="M0 0 C0.3540919 6.51791392 0.03901852 11.17521449 -3 17 C-3.99 17 -4.98 17 -6 17 C-5.91320858 14.53991222 -5.80639045 12.08356483 -5.6875 9.625 C-5.66494141 8.92632812 -5.64238281 8.22765625 -5.61914062 7.5078125 C-5.51171875 5.4765625 -5.51171875 5.4765625 -5 2 C-2 0 -2 0 0 0 Z " fill="#D48369" transform="translate(289,280)"/>
<path d="M0 0 C3.8088684 0.67215325 7.41388869 1.53295446 11 3 C11.33 3.99 11.66 4.98 12 6 C13.423125 5.938125 13.423125 5.938125 14.875 5.875 C18 6 18 6 20 8 C20.125 10.625 20.125 10.625 20 13 C20.78375 13.12375 21.5675 13.2475 22.375 13.375 C25 14 25 14 27 16 C27 17.32 27 18.64 27 20 C26.34 20 25.68 20 25 20 C24.95875 19.38125 24.9175 18.7625 24.875 18.125 C24.441875 17.073125 24.441875 17.073125 24 16 C23.030625 15.71125 22.06125 15.4225 21.0625 15.125 C20.051875 14.75375 19.04125 14.3825 18 14 C16.625 10.875 16.625 10.875 16 8 C14.35 7.67 12.7 7.34 11 7 C11 6.34 11 5.68 11 5 C8.69 4.67 6.38 4.34 4 4 C4 3.34 4 2.68 4 2 C2.68 1.67 1.36 1.34 0 1 C0 0.67 0 0.34 0 0 Z " fill="#1E0807" transform="translate(238,160)"/>
<path d="M0 0 C0.99 0.33 1.98 0.66 3 1 C3 3 3 3 0.94921875 5.26171875 C-2.25159699 8.33391518 -5.69639843 11.08017495 -9.1875 13.8125 C-9.81591797 14.31458984 -10.44433594 14.81667969 -11.09179688 15.33398438 C-15.75536777 19 -15.75536777 19 -18 19 C-16.07656632 13.75211304 -11.35103201 11.47749892 -6.9453125 8.4140625 C-3.73585214 5.78349684 -2.10390203 3.52683093 0 0 Z " fill="#1C0802" transform="translate(212,371)"/>
<path d="M0 0 C1.26811517 3.8043455 0.54052774 5.8028066 -0.375 9.6875 C-1.53594236 14.80306793 -2.47838348 19.78383484 -3 25 C-3.66 24.67 -4.32 24.34 -5 24 C-5.56531509 15.80293114 -3.64821217 8.74256411 -1 1 C-0.67 0.67 -0.34 0.34 0 0 Z " fill="#884336" transform="translate(216,263)"/>
<path d="M0 0 C6.6 1.65 13.2 3.3 20 5 C19.67 5.66 19.34 6.32 19 7 C12.3687091 7.49120673 6.81393319 6.38862772 1 3 C0.67 2.01 0.34 1.02 0 0 Z " fill="#CA6B57" transform="translate(179,330)"/>
<path d="M0 0 C0.99 0.33 1.98 0.66 3 1 C2.67 2.32 2.34 3.64 2 5 C3.55961362 5.96302356 5.12283225 6.92021004 6.6875 7.875 C7.55761719 8.40867187 8.42773438 8.94234375 9.32421875 9.4921875 C11.83391082 10.90640814 14.30299069 11.99894789 17 13 C17 13.66 17 14.32 17 15 C12.30849987 14.47949333 9.20757072 13.24024244 5.25 10.6875 C4.30640625 10.09324219 3.3628125 9.49898438 2.390625 8.88671875 C0.02097346 7.01655259 -0.94302568 5.78377538 -2 3 C-1.34 2.01 -0.68 1.02 0 0 Z " fill="#2A231E" transform="translate(221,269)"/>
<path d="M0 0 C2.52845528 1.26422764 2.76422764 2.52845528 4 5 C4.66 5.33 5.32 5.66 6 6 C5.67 6.99 5.34 7.98 5 9 C4.443125 8.46375 3.88625 7.9275 3.3125 7.375 C2.1678125 6.694375 2.1678125 6.694375 1 6 C-1.40084462 6.80972016 -1.40084462 6.80972016 -4 8 C-6.3320802 8.07646165 -8.66845878 8.09143299 -11 8 C-11 7.34 -11 6.68 -11 6 C-9.741875 5.7525 -8.48375 5.505 -7.1875 5.25 C-4.16442273 4.51162006 -3.1940517 4.20617994 -1 1.875 C-0.67 1.25625 -0.34 0.6375 0 0 Z " fill="#100B09" transform="translate(233,198)"/>
<path d="M0 0 C3.16115776 1.36983503 3.9927092 1.9890638 6 5 C6.07905064 7.33199388 6.08798769 9.66832622 6 12 C5.01 12 4.02 12 3 12 C1.68 15.3 0.36 18.6 -1 22 C-1.33 22 -1.66 22 -2 22 C-2.5446568 17.64274559 -1.84251075 15.47725092 0.625 12 C2.92289925 8.70559143 2.92289925 8.70559143 2.375 4.625 C1.92125 3.75875 1.4675 2.8925 1 2 C0.67 1.34 0.34 0.68 0 0 Z " fill="#80382E" transform="translate(127,237)"/>
<path d="M0 0 C-1.50853452 4.63183838 -5.18419506 6.35430274 -9.125 8.75 C-9.78371094 9.16121094 -10.44242188 9.57242187 -11.12109375 9.99609375 C-12.74194771 11.00619115 -14.37026852 12.00428938 -16 13 C-16.66 12.34 -17.32 11.68 -18 11 C-15.38021769 9.15912001 -12.75335419 7.32861565 -10.125 5.5 C-9.37863281 4.97535156 -8.63226563 4.45070313 -7.86328125 3.91015625 C-7.14785156 3.41386719 -6.43242187 2.91757812 -5.6953125 2.40625 C-5.03547363 1.94541016 -4.37563477 1.48457031 -3.69580078 1.00976562 C-2 0 -2 0 0 0 Z " fill="#230C02" transform="translate(206,360)"/>
<path d="M0 0 C3.38062267 0.53782633 6.68661544 1.14493302 10 2 C11.66519519 2.34060811 13.33157466 2.67558396 15 3 C12.3735117 4.4070473 9.97468053 5.62816493 7 6 C5.66666667 5.33333333 4.33333333 4.66666667 3 4 C-0.16695956 3.83275263 -0.16695956 3.83275263 -3 4 C-2.01 2.68 -1.02 1.36 0 0 Z " fill="#523937" transform="translate(195,151)"/>
<path d="M0 0 C1.70349609 0.13148438 1.70349609 0.13148438 3.44140625 0.265625 C6.4375 0.75 6.4375 0.75 9.4375 2.75 C9.1075 3.41 8.7775 4.07 8.4375 4.75 C7.695 4.564375 6.9525 4.37875 6.1875 4.1875 C3.55111994 3.56777497 3.55111994 3.56777497 1.5 4.3125 C-1.50573353 4.95007984 -3.68844135 3.70801955 -6.5625 2.75 C-8.8500976 3.02640014 -8.8500976 3.02640014 -10.5625 3.75 C-10.5625 3.09 -10.5625 2.43 -10.5625 1.75 C-6.95384419 -0.55528381 -4.19590118 -0.36278554 0 0 Z " fill="#523937" transform="translate(225.5625,165.25)"/>
<path d="M0 0 C0.99 0.33 1.98 0.66 3 1 C4.66362417 1.34820041 6.32995171 1.68404492 8 2 C8 2.33 8 2.66 8 3 C0.375 4.25 0.375 4.25 -3 2 C-6.84927445 2.29609803 -9.08761258 3.51907739 -12 6 C-11.64267506 3.40939422 -11.1383604 2.15432506 -9.375 0.1875 C-5.97293793 -1.51353103 -3.64539741 -0.79535943 0 0 Z " fill="#1E0807" transform="translate(202,150)"/>
<path d="M0 0 C0 0.99 0 1.98 0 3 C-3.09152119 2.55835412 -5.91998769 2.02783037 -8.875 1 C-12.61541901 -0.19693408 -16.09708063 -0.59624972 -20 -1 C-20 -1.33 -20 -1.66 -20 -2 C-12.68478282 -3.34361132 -6.94925278 -2.54240956 0 0 Z " fill="#140F0C" transform="translate(211,329)"/>
<path d="M0 0 C-4.75 3 -4.75 3 -7 3 C-7 6.96 -7 10.92 -7 15 C-7.33 15 -7.66 15 -8 15 C-8.33 12.69 -8.66 10.38 -9 8 C-11.0745356 7.8509288 -11.0745356 7.8509288 -13 9 C-13 6.8125 -13 6.8125 -12 4 C-8.22276114 0.72408804 -4.99070122 -1.81683954 0 0 Z " fill="#773128" transform="translate(291,279)"/>
<path d="M0 0 C3.5 0.4375 3.5 0.4375 5.4375 1.625 C6.82851983 3.99791618 6.71917317 5.73436424 6.5 8.4375 C5.84 7.7775 5.18 7.1175 4.5 6.4375 C0.48141147 3.75844098 -1.75305716 4.11567337 -6.5 4.4375 C-4.67773025 1.00734517 -3.95802503 0.49475313 0 0 Z " fill="#553C3A" transform="translate(242.5,175.5625)"/>
<path d="M0 0 C2.64 0.33 5.28 0.66 8 1 C7.67 2.65 7.34 4.3 7 6 C4.625 6.125 4.625 6.125 2 6 C1.34 5.34 0.68 4.68 0 4 C0 2.68 0 1.36 0 0 Z " fill="#040201" transform="translate(164,248)"/>
<path d="M0 0 C3.92344831 0.60360743 9.18267313 2.18267313 12 5 C12.04063832 6.66617115 12.042721 8.33388095 12 10 C11.62875 9.54625 11.2575 9.0925 10.875 8.625 C8.46941471 6.54015941 6.00119225 5.97864965 3 5 C2.67 4.34 2.34 3.68 2 3 C1.01 2.34 0.02 1.68 -1 1 C-0.67 0.67 -0.34 0.34 0 0 Z " fill="#543B38" transform="translate(277,186)"/>
<path d="M0 0 C0.556875 0.226875 1.11375 0.45375 1.6875 0.6875 C0.0478125 1.5228125 0.0478125 1.5228125 -1.625 2.375 C-4.99287367 4.27709869 -6.63435976 6.13379125 -8.3125 9.6875 C-9.3025 9.3575 -10.2925 9.0275 -11.3125 8.6875 C-10.6525 8.3575 -9.9925 8.0275 -9.3125 7.6875 C-9.044375 6.90375 -8.77625 6.12 -8.5 5.3125 C-6.78345931 1.51804164 -4.28622982 -0.57922025 0 0 Z " fill="#4F3836" transform="translate(196.3125,145.3125)"/>
<path d="M0 0 C1.2065625 0.0309375 1.2065625 0.0309375 2.4375 0.0625 C2.4375 2.7025 2.4375 5.3425 2.4375 8.0625 C1.06187146 6.77284824 -0.27016393 5.43560707 -1.5625 4.0625 C-1.5625 3.4025 -1.5625 2.7425 -1.5625 2.0625 C-2.2225 1.7325 -2.8825 1.4025 -3.5625 1.0625 C-2.5625 0.0625 -2.5625 0.0625 0 0 Z " fill="#F0B593" transform="translate(130.5625,233.9375)"/>
<path d="M0 0 C7.50769231 -0.36923077 7.50769231 -0.36923077 10 1.5 C10.495 2.2425 10.495 2.2425 11 3 C10.67 3.66 10.34 4.32 10 5 C8.948125 4.5359375 8.948125 4.5359375 7.875 4.0625 C4.91063343 2.96697322 2.12301892 2.43577008 -1 2 C-0.67 1.34 -0.34 0.68 0 0 Z " fill="#543C3A" transform="translate(276,176)"/>
<path d="M0 0 C1.33332095 2.6666419 0.67102033 4.16680303 0 7 C2.31 7 4.62 7 7 7 C7 7.33 7 7.66 7 8 C0.84765625 8.87890625 0.84765625 8.87890625 -1 9 C-2 8 -2 8 -2.1875 5.0625 C-2 2 -2 2 0 0 Z " fill="#985142" transform="translate(183,293)"/>
<path d="M0 0 C1.32 0.66 2.64 1.32 4 2 C4 2.66 4 3.32 4 4 C2.02 4.66 0.04 5.32 -2 6 C-1.125 1.125 -1.125 1.125 0 0 Z " fill="#4E3735" transform="translate(180,149)"/>
<path d="M0 0 C3.875 4.75 3.875 4.75 5 7 C4.01 7.33 3.02 7.66 2 8 C1.34 9.32 0.68 10.64 0 12 C0 8.04 0 4.08 0 0 Z " fill="#271D18" transform="translate(277,233)"/>
<path d="M0 0 C0.99 0.33 1.98 0.66 3 1 C2.835 1.598125 2.67 2.19625 2.5 2.8125 C1.8885876 5.11344336 1.8885876 5.11344336 2 8 C0.68 7.01 -0.64 6.02 -2 5 C-1.34 3.35 -0.68 1.7 0 0 Z " fill="#231C19" transform="translate(221,269)"/>
<path d="M0 0 C2.875 -0.125 2.875 -0.125 6 0 C6.66 0.66 7.32 1.32 8 2 C7.67 2.66 7.34 3.32 7 4 C4.36 3.67 1.72 3.34 -1 3 C-0.67 2.01 -0.34 1.02 0 0 Z " fill="#200A0A" transform="translate(217,149)"/>
<path d="M0 0 C-0.33 0.99 -0.66 1.98 -1 3 C-4.63 2.67 -8.26 2.34 -12 2 C-12 1.67 -12 1.34 -12 1 C-7.95858806 0.36605303 -4.0934693 -0.12404452 0 0 Z " fill="#3A2C24" transform="translate(203,326)"/>
<path d="M0 0 C0.99 0 1.98 0 3 0 C3.33 1.32 3.66 2.64 4 4 C4.66 4 5.32 4 6 4 C5.67 4.99 5.34 5.98 5 7 C3.29115995 5.37660195 1.62553283 3.70680947 0 2 C0 1.34 0 0.68 0 0 Z " fill="#211813" transform="translate(216,199)"/>
<path d="M0 0 C0.99 0.33 1.98 0.66 3 1 C3 1.66 3 2.32 3 3 C1.37373596 4.38232443 -0.2925002 5.71937515 -2 7 C-2 3 -2 3 0 0 Z " fill="#36170A" transform="translate(212,371)"/>
<path d="M0 0 C2.8125 -0.3125 2.8125 -0.3125 6 0 C7.875 2.5 7.875 2.5 9 5 C5.54074837 3.7508258 2.85306797 2.32472205 0 0 Z " fill="#BF7F67" transform="translate(183,302)"/>
<path d="M0 0 C0.33 0.99 0.66 1.98 1 3 C1.99 3.33 2.98 3.66 4 4 C3.01 4.99 2.02 5.98 1 7 C-2 3.25 -2 3.25 -2 1 C-1.34 0.67 -0.68 0.34 0 0 Z " fill="#211712" transform="translate(280,219)"/>
<path d="M0 0 C2.125 0.375 2.125 0.375 4 1 C3.01 1.33 2.02 1.66 1 2 C1.33 2.66 1.66 3.32 2 4 C0.02 4.66 -1.96 5.32 -4 6 C-2.84826645 3.53199953 -1.95216435 1.95216435 0 0 Z " fill="#DDA787" transform="translate(127,233)"/>
<path d="M0 0 C0.66 0.33 1.32 0.66 2 1 C0.3125 3.0625 0.3125 3.0625 -2 5 C-4.75 4.75 -4.75 4.75 -7 4 C-6.67 3.34 -6.34 2.68 -6 2 C-4.0625 1.4375 -4.0625 1.4375 -2 1 C-1.34 0.67 -0.68 0.34 0 0 Z " fill="#040101" transform="translate(282,215)"/>
</svg>
